<?xml version="1.0" encoding="utf-8"?>
<!-- Generator: Adobe Illustrator 16.2.0, SVG Export Plug-In . SVG Version: 6.00 Build 0)  -->
<!DOCTYPE svg PUBLIC "-//W3C//DTD SVG 1.1//EN" "http://www.w3.org/Graphics/SVG/1.1/DTD/svg11.dtd">
<svg version="1.1" id="Layer_1" xmlns="http://www.w3.org/2000/svg" xmlns:xlink="http://www.w3.org/1999/xlink" x="0px" y="0px"
	 viewBox="0 0 36 36" enable-background="new 0 0 36 36" xml:space="preserve">
<g id="Layer_1_1_">
	<g id="Layer_3_3_">
		<path fill="#323232" d="M18,0C8.059,0,0,8.059,0,18c0,9.941,8.059,18,18,18s18-8.059,18-18C36,8.059,27.941,0,18,0z"/>
	</g>
</g>
<g id="Layer_3_2_">
	<path fill="#FFFFFF" d="M26.318,22.357c0,0.483-0.393,0.875-0.877,0.875H10.557c-0.484,0-0.875-0.392-0.875-0.875v-7.881
		c0-0.484,0.391-0.876,0.875-0.876h14.885c0.484,0,0.877,0.392,0.877,0.876V22.357z"/>
	<polyline fill="none" stroke="#323232" stroke-width="0.9545" stroke-miterlimit="10" points="8.932,13.167 17.96,20.645 
		27.068,13.167 	"/>
</g>
<g id="Layer_4_1_">
</g>
</svg>
