<?xml version="1.0" encoding="utf-8"?>
<!-- Generator: Adobe Illustrator 16.2.0, SVG Export Plug-In . SVG Version: 6.00 Build 0)  -->
<!DOCTYPE svg PUBLIC "-//W3C//DTD SVG 1.1//EN" "http://www.w3.org/Graphics/SVG/1.1/DTD/svg11.dtd">
<svg version="1.1" id="Layer_1" xmlns="http://www.w3.org/2000/svg" xmlns:xlink="http://www.w3.org/1999/xlink" x="0px" y="0px"
	 viewBox="0 0 36 36" enable-background="new 0 0 36 36" xml:space="preserve">
<g id="Layer_1_1_">
	<g id="Layer_3_1_">
		<path fill="#323232" d="M18,0C8.059,0,0,8.059,0,18c0,9.941,8.059,18,18,18s18-8.059,18-18C36,8.059,27.941,0,18,0z"/>
	</g>
</g>
<g id="Layer_3_2_">
	<path fill="#FFFFFF" d="M19.705,27.094h-4l-0.016-9.016l-2.016,0.016v-2.969h2.031v-3.062c0,0,0.03-1.25,0.719-1.922
		c0.522-0.512,1.108-0.953,2.266-1.031c0.658-0.044,4.003-0.026,4.003-0.026v3.011h-3.05v3h3.094l-0.375,2.953l-2.656,0.016V27.094z
		"/>
</g>
<g id="Layer_4_1_">
</g>
</svg>
