<?xml version="1.0" encoding="utf-8"?>
<!-- Generator: Adobe Illustrator 16.2.0, SVG Export Plug-In . SVG Version: 6.00 Build 0)  -->
<!DOCTYPE svg PUBLIC "-//W3C//DTD SVG 1.1//EN" "http://www.w3.org/Graphics/SVG/1.1/DTD/svg11.dtd">
<svg version="1.1" id="Layer_1" xmlns="http://www.w3.org/2000/svg" xmlns:xlink="http://www.w3.org/1999/xlink" x="0px" y="0px"
	 viewBox="0 0 36 36" enable-background="new 0 0 36 36" xml:space="preserve">
<g id="Layer_1_1_">
	<g id="Layer_3_4_">
		<path fill="#323232" d="M18,0C8.059,0,0,8.059,0,18c0,9.941,8.059,18,18,18s18-8.059,18-18C36,8.059,27.941,0,18,0z"/>
	</g>
</g>
<g id="Layer_3_2_">
	<circle fill="#FFFFFF" cx="12.467" cy="12.06" r="1.622"/>
	<rect x="10.846" y="14.625" fill="#FFFFFF" width="3.243" height="9.292"/>
	<path fill="#FFFFFF" d="M25.803,17.745v6.172h-3.244v-6.172c0,0-0.074-1.128-1.578-1.128c-1.858,0-1.898,1.424-1.898,1.424h-0.006
		v5.875h-3.245v-9.312h3.245v1.041h0.006c0,0,1.182-1.048,2.869-1.048C25.919,14.599,25.803,17.745,25.803,17.745z"/>
</g>
<g id="Layer_4_1_">
</g>
</svg>
