<?xml version="1.0" encoding="utf-8"?>
<!-- Generator: Adobe Illustrator 16.2.0, SVG Export Plug-In . SVG Version: 6.00 Build 0)  -->
<!DOCTYPE svg PUBLIC "-//W3C//DTD SVG 1.1//EN" "http://www.w3.org/Graphics/SVG/1.1/DTD/svg11.dtd">
<svg version="1.1" id="Layer_1" xmlns="http://www.w3.org/2000/svg" xmlns:xlink="http://www.w3.org/1999/xlink" x="0px" y="0px"
	 viewBox="0 0 36 36" enable-background="new 0 0 36 36" xml:space="preserve">
<g id="Layer_1_2_">
	<g id="Layer_1_1_" display="none">
		<path display="inline" fill="#323232" d="M18,0C8.06,0,0,8.059,0,18c0,9.941,8.06,18,18,18c9.941,0,18-8.059,18-18
			C36,8.059,27.941,0,18,0z M21.855,18.006h-2.521c0,4.03,0,8.994,0,8.994h-3.739c0,0,0-4.915,0-8.994h-1.777v-3.179h1.777v-2.055
			c0-1.473,0.7-3.773,3.773-3.773l2.769,0.011v3.084c0,0-1.684,0-2.011,0s-0.792,0.164-0.792,0.865v1.868h2.85L21.855,18.006z"/>
	</g>
	<g id="Layer_3">
		<path fill="#323232" d="M18,0C8.059,0,0,8.059,0,18c0,9.941,8.059,18,18,18c9.941,0,18-8.059,18-18C36,8.059,27.941,0,18,0z"/>
	</g>
	<g id="Layer_4" display="none">
		<path display="inline" fill="#323232" d="M18,0C8.059,0,0,8.059,0,18c0,9.941,8.059,18,18,18c9.941,0,18-8.059,18-18
			C36,8.059,27.941,0,18,0z M25.158,21.551v3.732h-0.002l0.002,0.339c-3.621,1.827-9.63,2.347-13.098,0.01
			C9.961,24.217,7.892,21.4,8.004,17.84c0.107-3.383,2.301-6.412,5.317-7.937c3.468-1.754,8.703-1.423,11.751,1.104l-1.797,1.833
			l-1.164,0.331l0.619-1.126c-0.892-0.895-1.912-1.543-3.037-1.902c-1.792-0.575-3.446-0.257-4.825,0.417
			c-2.824,1.383-4.495,4.734-3.846,8.276c0.684,3.732,3.571,6.727,7.359,7.042c1.116,0.095,2.338,0.038,3.42-0.246
			c0.77-0.249,0.764-0.323,0.764-0.79v-3.29l-3.793,0.113l1.955-1.101H26L25.158,21.551z"/>
	</g>
	<g id="Layer_5" display="none">
		<path display="inline" fill="#323232" d="M18,0C8.059,0,0,8.059,0,18c0,9.941,8.06,18,18,18c9.941,0,18-8.059,18-18
			C36,8.059,27.941,0,18,0z M26.91,13.917c-1.006,5.665-6.625,10.463-8.314,11.56c-1.692,1.098-3.233-0.438-3.792-1.6
			c-0.641-1.324-2.56-8.498-3.062-9.092c-0.502-0.594-2.011,0.594-2.011,0.594L9,14.42c0,0,3.062-3.656,5.392-4.114
			c2.47-0.484,2.466,3.793,3.061,6.168c0.575,2.297,0.962,3.611,1.463,3.611c0.503,0,1.462-1.28,2.514-3.245
			c1.051-1.965-0.048-3.702-2.103-2.467C20.148,9.438,27.916,8.253,26.91,13.917z"/>
	</g>
	<path fill="#FFFFFF" d="M25.158,14.329c0.007,0.158,0.01,0.318,0.01,0.479c0,4.879-3.715,10.506-10.507,10.506
		c-2.085,0-4.026-0.61-5.661-1.659c0.29,0.034,0.583,0.052,0.881,0.052c1.73,0,3.322-0.591,4.586-1.581
		c-1.615-0.028-2.979-1.099-3.449-2.563c0.227,0.043,0.457,0.065,0.694,0.065c0.337,0,0.664-0.045,0.974-0.131
		c-1.689-0.338-2.962-1.831-2.962-3.62c0-0.016,0-0.032,0-0.047c0.498,0.277,1.067,0.443,1.671,0.462
		c-0.99-0.662-1.643-1.792-1.643-3.073c0-0.677,0.182-1.312,0.5-1.855c1.821,2.234,4.542,3.705,7.611,3.857
		c-0.062-0.271-0.096-0.552-0.096-0.842c0-2.04,1.654-3.693,3.693-3.693c1.062,0,2.021,0.448,2.694,1.166
		c0.843-0.166,1.632-0.473,2.345-0.896c-0.274,0.863-0.858,1.586-1.623,2.043c0.748-0.089,1.459-0.288,2.121-0.582
		C26.506,13.158,25.879,13.808,25.158,14.329z"/>
</g>
<g id="Layer_3_2_">
</g>
<g id="Layer_4_1_">
</g>
</svg>
